# xmcd
#
# Track frame offsets: 
#        150
#        21695
#        39102
#        57490
#        75440
#        102686
#        124561
#        152850
#        174608
#        194528
#        221076
#        239986
#        256302
#        269679
#        284497
#        302166
#        316769
#
# Disc length: 4433 seconds
#
# Revision: 0
# Processed by: cddbd v1.5.2PL0 Copyright (c) Steve Scherf et al.
# Submitted via: ExactAudioCopy v0.95b4
#
DISCID=06114f11
DTITLE=Various Artist - Don´s Black Vol 14
DYEAR=1900
DGENRE=
TTITLE0=Backstreet Boys - Everybody
TTITLE1=Backstreet Boys - Get down
TTITLE2=Down Low - H.I.V.
TTITLE3=Surface - Happy
TTITLE4=Gladys - Here I am
TTITLE5=N´sync - Here we go
TTITLE6=Luniz - I got 5 on it
TTITLE7=P.M. Samson - I love to love
TTITLE8=N´sync - I want you back
TTITLE9=Fettes Brot - Jein
TTITLE10=Az Yet - Last night
TTITLE11=Absolute Beginners - Liebeslied
TTITLE12=Lutricia McNeal - Somebody loves you hiney
TTITLE13=Will Smith - Miami
TTITLE14=Fanta 4 - Picknicker
TTITLE15=Lutricia McNeal - When a child was born (remix)
TTITLE16=Lutricia McNeal - When a child was born
EXTD=
EXTT0=
EXTT1=
EXTT2=
EXTT3=
EXTT4=
EXTT5=
EXTT6=
EXTT7=
EXTT8=
EXTT9=
EXTT10=
EXTT11=
EXTT12=
EXTT13=
EXTT14=
EXTT15=
EXTT16=
PLAYORDER=
